# xmcd
#
# Track frame offsets:
#  150
#  10720
#  23234
#  34919
#  46213
#  61715
#  73623
#  86729
#  101924
#  112076
#  124039
#  136559
#  150946
#  162993
#  176099
#
# Disc length: 2536 seconds
#
# Revision: 0
# Processed by: cddbd v1.5.1PL0 Copyright (c) Steve Scherf et al.
# Submitted via: Collectorz.com_Music_Collector 6.9
#
DISCID=bb09e60f
DTITLE=Woodie Guthrie - A Long Hard Road
DYEAR=2004
DGENRE=Bluegrass - Old Country
TTITLE0=This Land Is Your Land
TTITLE1=I Ain't Got No Home
TTITLE2=Hard Travelin'
TTITLE3=Pastures Of Plenty
TTITLE4=Vigilante Man
TTITLE5=Buffalo Gals
TTITLE6=Muleskinner Blues
TTITLE7=The Great Dust Storm
TTITLE8=Grand Coulee Dam
TTITLE9=Do Re Mi
TTITLE10=Take A Whiff On Me
TTITLE11=Pretty Boy Floyd
TTITLE12=New York Town
TTITLE13=Gypsy Davy
TTITLE14=A Picture From Life's Other Side
EXTD=
EXTT0=
EXTT1=
EXTT2=
EXTT3=
EXTT4=
EXTT5=
EXTT6=
EXTT7=
EXTT8=
EXTT9=
EXTT10=
EXTT11=
EXTT12=
EXTT13=
EXTT14=
PLAYORDER=
